<?xml version="1.0" ?><svg viewBox="0 0 512 512" xmlns="http://www.w3.org/2000/svg"><defs><style>.cls-1{fill:#d27676;}.cls-2{fill:#b36464;}.cls-3{fill:#ec9090;}.cls-4{fill:#f9dbdb;}.cls-5{fill:#d88080;}.cls-6{fill:#ea8383;}.cls-7{fill:#c97b7b;}.cls-8{fill:#c76f6f;}.cls-9{fill:#bebebe;}.cls-10{fill:#8c8c8c;}.cls-11{fill:#dfdfdf;}.cls-12{fill:#a2a2a2;}</style></defs><g data-name="/ FILLED_OUTLINE" id="_FILLED_OUTLINE"><polygon class="cls-1" points="312 24 136 24 72 136 144 488 304 488 376 136 312 24"/><path class="cls-2" d="M142.036,478.39819,144,488H304l30.46191-148.92493A320.49978,320.49978,0,0,1,142.036,478.39819Z"/><polygon class="cls-3" points="288 56 160 56 112 136 176 456 272 456 336 136 288 56"/><path class="cls-4" d="M200,192H184V176a8.00917,8.00917,0,0,0-8-8h-8v24H152V120h24a23.98827,23.98827,0,0,1,17.874,40A23.9041,23.9041,0,0,1,200,176Zm-32-40h8a8,8,0,0,0,0-16h-8Z"/><rect class="cls-4" height="72" width="16" x="216" y="120"/><path class="cls-4" d="M264,192H248V120h24a24,24,0,0,1,0,48h-8Zm0-40h8a8,8,0,0,0,0-16h-8Z"/><polygon class="cls-5" points="72 136 112 136 160 56 136 24 72 136"/><polygon class="cls-5" points="336 136 376 136 312 24 288 56 336 136"/><polygon class="cls-6" points="136 24 160 56 288 56 312 24 136 24"/><polygon class="cls-6" points="272 456 176 456 144 488 304 488 272 456"/><path class="cls-7" d="M272,456l10.93188-54.65894A320.61265,320.61265,0,0,1,203.55908,456Z"/><path class="cls-8" d="M203.55908,456a317.80627,317.80627,0,0,1-45.47168,17.9126L144,488H304l-32-32Z"/><path class="cls-2" d="M142.036,478.39819,144,488l14.0874-14.0874Q150.145,476.35229,142.036,478.39819Z"/><path class="cls-9" d="M376,232H312a48,48,0,0,0-48,48V440H424V280A48,48,0,0,0,376,232Z"/><path class="cls-10" d="M424,440H232a16,16,0,0,0-16,16v32H440V456A16,16,0,0,0,424,440Z"/><path class="cls-11" d="M344,232H280a48,48,0,0,0-48,48V440H392V280A48,48,0,0,0,344,232Z"/><rect class="cls-9" height="16" width="96" x="264" y="296"/><rect class="cls-9" height="16" width="24" x="264" y="360"/><rect class="cls-9" height="16" width="56" x="304" y="360"/><rect class="cls-9" height="16" width="24" x="264" y="392"/><rect class="cls-9" height="16" width="56" x="304" y="392"/><path class="cls-12" d="M392,354.13379V440h32V280a48.11292,48.11292,0,0,0-1.192-10.613A190.88112,190.88112,0,0,1,392,354.13379Z"/><path class="cls-9" d="M232.00024,440H392V354.13379A191.78827,191.78827,0,0,1,232.00024,440Z"/><path class="cls-12" d="M360,408V392h-1.02734a192.72331,192.72331,0,0,1-20.8313,16Z"/><path d="M176,120H152v72h16V168h8a8.00917,8.00917,0,0,1,8,8v16h16V176a23.9041,23.9041,0,0,0-6.126-16A23.98827,23.98827,0,0,0,176,120Zm0,32h-8V136h8a8,8,0,0,1,0,16Z"/><rect height="72" width="16" x="216" y="120"/><path d="M264,168h8a24,24,0,0,0,0-48H248v72h16Zm0-32h8a8,8,0,0,1,0,16h-8Z"/><path d="M432,433.3761V280a56.06353,56.06353,0,0,0-56-56h-9.83411l18.276-89.35107L316.64258,16H131.35742L63.55811,134.64893,137.4707,496H448V456A24.03765,24.03765,0,0,0,432,433.3761ZM416,280V432H400V280a55.80782,55.80782,0,0,0-16.06531-39.20679A40.06627,40.06627,0,0,1,416,280ZM209.3761,448H182.55859L120.45117,137.46387,164.5293,64H283.4707l44.07813,73.46387L310.24133,224H280a56.06353,56.06353,0,0,0-56,56V433.3761A24.11332,24.11332,0,0,0,209.3761,448ZM107.47046,128H85.7854l51.11987-89.45984,13.46741,17.95648Zm233.05908,0L297.62732,56.49664l13.46741-17.95648L362.2146,128Zm-56.5293-80H163.99976l-12-16H296.00024ZM240,280a40.04521,40.04521,0,0,1,40-40h64a40.04521,40.04521,0,0,1,40,40V432H240Zm86.55835-56,16-80h23.63977l-16.36377,80ZM81.80188,144h23.63977l61.874,309.37085-18.45776,18.45776Zm81.5116,336,16-16H208v16ZM432,480H224V456a8.00917,8.00917,0,0,1,8-8H424a8.00917,8.00917,0,0,1,8,8Z"/><rect height="16" width="96" x="264" y="296"/><rect height="16" width="24" x="264" y="360"/><rect height="16" width="56" x="304" y="360"/><rect height="16" width="24" x="264" y="392"/><rect height="16" width="56" x="304" y="392"/></g></svg>