<?xml version="1.0" encoding="UTF-8" standalone="no"?>
<!-- Created with Inkscape (http://www.inkscape.org/) -->

<svg
   width="64pt"
   height="64pt"
   viewBox="0 0 22.577778 22.577778"
   version="1.1"
   id="svg831"
   inkscape:version="1.1.1 (3bf5ae0d25, 2021-09-20)"
   sodipodi:docname="Export - Unblash - 64px.svg"
   inkscape:export-filename="C:\Users\User\Desktop\CARLOS PROJECT\6. JUNI 2\DONE\FILEDLINE\13 - Submarine.png"
   inkscape:export-xdpi="576"
   inkscape:export-ydpi="576"
   xmlns:inkscape="http://www.inkscape.org/namespaces/inkscape"
   xmlns:sodipodi="http://sodipodi.sourceforge.net/DTD/sodipodi-0.dtd"
   xmlns="http://www.w3.org/2000/svg"
   xmlns:svg="http://www.w3.org/2000/svg"
   xmlns:rdf="http://www.w3.org/1999/02/22-rdf-syntax-ns#"
   xmlns:cc="http://creativecommons.org/ns#"
   xmlns:dc="http://purl.org/dc/elements/1.1/">
  <defs
     id="defs825">
    <pattern
       id="EMFhbasepattern"
       patternUnits="userSpaceOnUse"
       width="6"
       height="6"
       x="0"
       y="0" />
    <pattern
       id="EMFhbasepattern-9"
       patternUnits="userSpaceOnUse"
       width="6"
       height="6"
       x="0"
       y="0" />
    <pattern
       id="EMFhbasepattern-0"
       patternUnits="userSpaceOnUse"
       width="6"
       height="6"
       x="0"
       y="0" />
    <pattern
       id="EMFhbasepattern-7"
       patternUnits="userSpaceOnUse"
       width="6"
       height="6"
       x="0"
       y="0" />
    <pattern
       id="EMFhbasepattern-2"
       patternUnits="userSpaceOnUse"
       width="6"
       height="6"
       x="0"
       y="0" />
    <pattern
       id="EMFhbasepattern-98"
       patternUnits="userSpaceOnUse"
       width="6"
       height="6"
       x="0"
       y="0" />
    <pattern
       id="EMFhbasepattern-6"
       patternUnits="userSpaceOnUse"
       width="6"
       height="6"
       x="0"
       y="0" />
    <pattern
       id="EMFhbasepattern-01"
       patternUnits="userSpaceOnUse"
       width="6"
       height="6"
       x="0"
       y="0" />
    <pattern
       id="EMFhbasepattern-07"
       patternUnits="userSpaceOnUse"
       width="6"
       height="6"
       x="0"
       y="0" />
    <pattern
       id="EMFhbasepattern-8"
       patternUnits="userSpaceOnUse"
       width="6"
       height="6"
       x="0"
       y="0" />
    <pattern
       id="EMFhbasepattern-4"
       patternUnits="userSpaceOnUse"
       width="6"
       height="6"
       x="0"
       y="0" />
    <pattern
       id="EMFhbasepattern-40"
       patternUnits="userSpaceOnUse"
       width="6"
       height="6"
       x="0"
       y="0" />
    <pattern
       id="EMFhbasepattern-08"
       patternUnits="userSpaceOnUse"
       width="6"
       height="6"
       x="0"
       y="0" />
    <pattern
       id="EMFhbasepattern-04"
       patternUnits="userSpaceOnUse"
       width="6"
       height="6"
       x="0"
       y="0" />
    <pattern
       id="EMFhbasepattern-014"
       patternUnits="userSpaceOnUse"
       width="6"
       height="6"
       x="0"
       y="0" />
    <pattern
       id="EMFhbasepattern-27"
       patternUnits="userSpaceOnUse"
       width="6"
       height="6"
       x="0"
       y="0" />
    <pattern
       id="EMFhbasepattern-09"
       patternUnits="userSpaceOnUse"
       width="6"
       height="6"
       x="0"
       y="0" />
    <pattern
       id="EMFhbasepattern-5"
       patternUnits="userSpaceOnUse"
       width="6"
       height="6"
       x="0"
       y="0" />
    <pattern
       id="EMFhbasepattern-018"
       patternUnits="userSpaceOnUse"
       width="6"
       height="6"
       x="0"
       y="0" />
  </defs>
  <sodipodi:namedview
     id="base"
     pagecolor="#ffffff"
     bordercolor="#666666"
     borderopacity="1.0"
     inkscape:pageopacity="0.0"
     inkscape:pageshadow="2"
     inkscape:zoom="3.2460938"
     inkscape:cx="40.972323"
     inkscape:cy="42.666667"
     inkscape:document-units="pt"
     inkscape:current-layer="layer1"
     showgrid="false"
     units="pt"
     inkscape:window-width="960"
     inkscape:window-height="1001"
     inkscape:window-x="951"
     inkscape:window-y="-9"
     inkscape:window-maximized="0"
     inkscape:pagecheckerboard="true"
     inkscape:showpageshadow="false"
     inkscape:object-paths="true"
     inkscape:snap-intersection-paths="true"
     inkscape:snap-smooth-nodes="true"
     inkscape:snap-midpoints="true"
     showguides="true"
     inkscape:snap-bbox="true"
     inkscape:bbox-nodes="true"
     inkscape:snap-nodes="false"
     inkscape:snap-global="true"
     inkscape:snap-others="false">
    <inkscape:grid
       type="xygrid"
       id="grid1378" />
    <sodipodi:guide
       position="0.97013831,21.607643"
       orientation="78.000048,0"
       id="guide1380"
       inkscape:locked="false" />
    <sodipodi:guide
       position="0.97013831,0.97013129"
       orientation="0,78.000005"
       id="guide1382"
       inkscape:locked="false" />
    <sodipodi:guide
       position="21.607639,0.97013129"
       orientation="-78.000048,0"
       id="guide1384"
       inkscape:locked="false" />
    <sodipodi:guide
       position="21.607639,21.607643"
       orientation="0,-78.000005"
       id="guide1386"
       inkscape:locked="false" />
  </sodipodi:namedview>
  <metadata
     id="metadata828">
    <rdf:RDF>
      <cc:Work
         rdf:about="">
        <dc:format>image/svg+xml</dc:format>
        <dc:type
           rdf:resource="http://purl.org/dc/dcmitype/StillImage" />
      </cc:Work>
    </rdf:RDF>
  </metadata>
  <g
     inkscape:label="Icon"
     inkscape:groupmode="layer"
     id="layer1"
     transform="translate(0,-274.42223)">
    <g
       id="g42691"
       style="display:inline;stroke-width:0.801787"
       transform="matrix(1.2472144,0,0,1.2472144,-36.88964,-113.75052)">
      <g
         id="g18588"
         style="display:inline;stroke-width:0.801787">
        <path
           style="color:#000000;fill:#ececec;stroke-width:0.424279;stroke-linecap:round;stroke-linejoin:round;-inkscape-stroke:none"
           d="m 34.980202,318.28395 -1.437751,0.26761 c -0.142871,0.0266 -0.323151,-0.0765 -0.379853,-0.26082 -0.181513,-0.59014 -0.196268,-1.33139 -0.0035,-1.94165 0.05801,-0.18363 0.241183,-0.29133 0.312268,-0.27483 l 2.241228,0.4224 z"
           id="path85390"
           sodipodi:nodetypes="cccsccc" />
        <path
           style="color:#000000;fill:#ececec;stroke-width:0.801787;stroke-linecap:round;stroke-linejoin:round;-inkscape-stroke:none"
           d="m 43.59375,318.80859 a 0.26460996,0.26460996 0 0 0 -0.05859,0.004 l -2.769531,0.42773 a 0.26460996,0.26460996 0 0 0 -0.166016,0.42579 l 2.78125,3.47656 a 0.26460996,0.26460996 0 0 0 0.347657,0.0605 l 1.945312,-1.22265 1.03125,-0.27735 a 0.26460996,0.26460996 0 0 0 0.183594,-0.33984 c -0.471565,-1.40959 -1.755993,-2.44636 -3.294922,-2.55469 z"
           id="path448359" />
        <path
           style="color:#000000;fill:#143441;stroke-width:0.801787;stroke-linecap:round;stroke-linejoin:round;-inkscape-stroke:none"
           d="m 43.107418,321.03126 -0.71875,-1.68945 -6.779959,0.17381 0.90039,3.23243 3.105161,1.08312 1.534181,0.005 z"
           id="path68268"
           sodipodi:nodetypes="ccccccc" />
        <path
           style="color:#000000;fill:#3a4d5b;stroke-width:0.801787;stroke-linecap:round;stroke-linejoin:round;-inkscape-stroke:none"
           d="m 43.326172,319.90625 c -1.460608,0 -2.650392,1.18783 -2.650391,2.64844 -10e-7,1.46061 1.189783,2.65039 2.650391,2.65039 1.460608,0 2.650396,-1.18978 2.65039,-2.65039 6e-6,-1.46061 -1.189782,-2.64844 -2.65039,-2.64844 z"
           id="path390364" />
        <path
           style="color:#000000;fill:#aabfd0;stroke-width:0.801787;stroke-linecap:round;stroke-linejoin:round;-inkscape-stroke:none"
           d="m 43.326172,320.96055 c -0.878236,0 -1.596052,0.71593 -1.596056,1.59417 4e-6,0.87824 0.71782,1.59606 1.596056,1.59605 0.878236,0 1.596051,-0.71781 1.596054,-1.59605 -3e-6,-0.87824 -0.717818,-1.59417 -1.596054,-1.59417 z"
           id="path390172" />
        <path
           style="color:#000000;fill:#3a4d5b;stroke-width:0.801787;stroke-linecap:round;stroke-linejoin:round;-inkscape-stroke:none"
           d="m 33.005859,319.90625 c -1.460608,0 -2.650391,1.18783 -2.65039,2.64844 -1e-6,1.46061 1.189782,2.65039 2.65039,2.65039 1.460609,0 2.650392,-1.18978 2.650391,-2.65039 10e-7,-1.46061 -1.189782,-2.64844 -2.650391,-2.64844 z"
           id="path390556" />
        <path
           style="color:#000000;fill:#aabfd0;stroke-width:0.801787;stroke-linecap:round;stroke-linejoin:round;-inkscape-stroke:none"
           d="m 33.019562,320.96837 c -0.878254,0 -1.594192,0.71783 -1.594194,1.59608 2e-6,0.87825 0.71594,1.59609 1.594194,1.59609 0.878254,0 1.596083,-0.71784 1.596087,-1.59609 -4e-6,-0.87825 -0.717833,-1.59608 -1.596087,-1.59608 z"
           id="path390748" />
        <path
           id="path420029"
           style="fill:#0d202b;fill-opacity:1;stroke-width:0.801787;stroke-linecap:round;stroke-linejoin:round"
           d="m 37.481508,321.40914 c -0.275423,0.0233 -0.560588,0.018 -0.816239,0.13947 -0.23948,0.1024 -0.315189,0.26793 -0.473473,0.47467 0.06735,0.24167 0.134702,0.48335 0.202054,0.72502 0.06843,0.20536 0.157555,0.20245 0.32692,0.26358 0.952392,0.27147 1.904786,0.54293 2.857178,0.81439 0.238686,0.021 0.479893,0.005 0.719648,0.01 0.137543,-0.0299 0.16324,-0.25089 0.228116,-0.36621 0.264175,-0.72861 -0.07242,-1.61185 -0.751822,-1.98349 -0.219784,-0.12368 -0.47081,-0.1907 -0.723043,-0.19236 -0.523629,0.0279 -1.04616,0.0779 -1.569339,0.11493 z"
           sodipodi:nodetypes="ccccccccccc" />
        <path
           style="color:#000000;fill:#3a4d5b;stroke-width:0.801787;stroke-linecap:round;stroke-linejoin:round;-inkscape-stroke:none"
           d="m 36.331379,322.9375 c 0,0.58137 0.341115,0.91201 0.912715,0.91201 l 1.71875,0.0481 c 0.664193,0.001 1.20117,-0.30563 1.201171,-0.96006 v -10e-6 c -10e-7,-0.65495 -0.534448,-1.24146 -1.210937,-1.18945 l 4.7e-5,-4e-5 -1.700219,0.13086 c -0.581487,10e-4 -0.921527,0.47787 -0.921527,1.05859 z"
           id="path418625"
           sodipodi:nodetypes="sccsscccs" />
        <path
           style="color:#000000;fill:#9a605a;stroke-width:0.801786;stroke-linecap:round;stroke-linejoin:round;-inkscape-stroke:none"
           d="m 40.570657,318.31037 c -0.476159,0.0282 -0.976456,0.071 -1.397909,0.31412 -0.166246,0.0876 -0.308584,0.25135 -0.26885,0.4482 0.01097,0.20236 0.02194,0.40472 0.0329,0.60709 0.07366,0.3629 0.455079,0.60547 0.815315,0.57324 1.0918,-7.1e-4 2.183637,9.8e-4 3.275415,-9.7e-4 0.442637,-0.0127 0.814016,-0.43264 0.778839,-0.87295 0.02822,-0.44422 -0.2164,-0.90609 -0.635024,-1.08169 -0.205677,-0.0919 -0.437427,-0.11889 -0.659962,-0.0896 -0.642969,0.0894 -1.29293,0.0944 -1.940722,0.10262 z"
           id="path390940"
           sodipodi:nodetypes="cccccccccc" />
        <path
           style="color:#000000;fill:#ececec;stroke-width:0.801786;stroke-linecap:round;stroke-linejoin:round;-inkscape-stroke:none"
           d="m 35.905363,320.086 0.233697,0.15165 h 2.445283 c 0.43578,0 0.793537,-0.36832 0.793537,-0.81627 0,-0.44919 -0.333885,-0.79169 -0.723463,-0.89012 -0.571505,-0.15421 -0.916228,-0.45121 -1.452607,-0.68938 -0.456331,-0.20263 -1.032515,-0.32982 -1.918809,-0.23427 l -0.591086,1.37069 0.878339,0.20438 0.140995,0.52099 z"
           id="path57046"
           sodipodi:nodetypes="ccsscsccccc" />
        <path
           style="color:#000000;fill:#3a4d5b;stroke-width:0.801787;stroke-linecap:round;stroke-linejoin:round;-inkscape-stroke:none"
           d="m 37.214844,315.49609 a 0.26460996,0.26460996 0 0 0 -0.324219,0.1875 l -0.273438,1.02344 a 0.26460996,0.26460996 0 0 0 0.1875,0.32227 l 1.277344,0.34375 c 0.420513,0.11268 0.874512,-0.13513 0.97461,-0.57032 0.09498,-0.41295 -0.141937,-0.85025 -0.5625,-0.96289 z"
           id="path389109" />
        <path
           id="path85206"
           style="color:#000000;fill:#fca311;stroke-width:0.424279;stroke-linecap:round;stroke-linejoin:round;-inkscape-stroke:none"
           d="m 33.159217,316.3492 c -0.192768,0.61026 -0.177896,1.35134 0.0036,1.94148 0.0567,0.18432 0.236952,0.28757 0.379822,0.26097 l 0.218591,-0.0408 c 0.280469,-0.80248 0.311936,-1.51229 0.02532,-2.37711 l -0.326586,-0.0602 c -0.09294,0.005 -0.248175,0.10925 -0.300747,0.27567 z"
           sodipodi:nodetypes="ccccccc" />
      </g>
      <path
         id="path3960"
         style="color:#000000;fill:#000000;stroke-width:3.03038;stroke-linecap:round;stroke-linejoin:round;-inkscape-stroke:none"
         d="m 147.30096,166.3967 c 1.06579,0 2.05013,-0.37711 2.82422,-1.0039 h 4.84375 c 0.6921,1.25978 1.65122,2.35131 2.79492,3.20898 h -27.0332 c 2.44405,-1.82852 4.03711,-4.73564 4.03711,-8.01367 -1e-5,-2.64219 -1.03213,-5.05377 -2.70899,-6.84375 -0.37538,-0.40278 -1.00574,-0.42639 -1.41015,-0.0527 -0.4057,0.37837 -0.42587,1.01467 -0.0449,1.41797 1.34389,1.43455 2.16405,3.35171 2.16406,5.47656 0,4.43954 -3.57805,8.01758 -8.01758,8.01758 -4.43953,0 -8.01758,-3.57804 -8.01758,-8.01758 2e-5,-4.43951 3.57806,-8.01563 8.01758,-8.01563 0.54923,-0.002 0.99395,-0.44686 0.99609,-0.99609 0.002,-0.55229 -0.4438,-1.00175 -0.99609,-1.00391 -5.5204,0 -10.01756,4.4972 -10.01758,10.01758 0,5.52042 4.49717,10.01563 10.01758,10.01563 19.18882,-2.4e-4 32.78412,-0.002 51.24783,-0.002 0.55247,0.002 1.00395,-0.4436 1.00586,-0.99609 0.002,-0.55537 -0.45049,-1.0061 -1.00586,-1.00391 h -6.25977 c 2.44308,-1.82916 4.03517,-4.73641 4.03516,-8.01367 -10e-6,-0.82785 -0.10299,-1.63216 -0.29297,-2.40234 l 3.04687,-0.81641 c 0.55605,-0.15093 0.8699,-0.73927 0.68555,-1.28516 -1.71441,-5.12467 -6.2715,-8.94572 -11.79297,-9.59375 -0.25671,-0.58269 -0.63402,-1.09057 -1.10937,-1.48632 -0.9316,-0.7756 -2.20608,-1.11732 -3.5293,-0.94532 -2.09443,0.27213 -4.03415,0.37318 -6.48828,0.37696 -1.00097,0.002 -2.3414,0.0576 -3.6543,0.29492 -1.11768,0.20206 -2.23215,0.50596 -3.11719,1.16406 -0.37751,-0.25718 -0.79909,-0.44763 -1.23828,-0.55859 -1.59285,-0.40264 -2.85365,-1.14828 -4.24414,-1.9043 -1.39049,-0.75606 -2.92177,-1.51996 -4.90234,-1.73437 -0.54763,-0.0582 -1.03923,0.33737 -1.09961,0.88476 -0.0628,0.55051 0.33397,1.04714 0.88477,1.10742 1.5897,0.17197 2.80991,0.76603 4.15624,1.49805 1.34635,0.73202 2.80334,1.60618 4.7168,2.08984 0.7225,0.18255 1.31446,0.79412 1.31446,1.52735 -0.0451,0.76427 -0.51683,1.18164 -1.09961,1.18164 h -7.20508 c -0.55229,-0.002 -1.00175,0.4438 -1.00391,0.99609 -0.002,0.55534 0.44857,1.00609 1.00391,1.00391 h 7.20508 c 0.71215,0 1.37205,-0.25204 1.89843,-0.67383 0.52034,0.42231 1.18246,0.67383 1.89649,0.67383 h 10.56054 l 1.77344,6.70312 c -0.53905,0.45912 -0.88475,1.13949 -0.88476,1.89453 -2e-5,1.36891 1.13307,2.50391 2.50195,2.50391 1.36888,0 2.49611,-1.135 2.49609,-2.50391 -10e-6,-1.26857 -0.96795,-2.32807 -2.19922,-2.47656 l -1.61914,-6.12109 c 1.96007,0 3.36719,-1.70861 3.36719,-3.41797 4.0419,0.71565 7.23492,3.56572 8.86524,7.22852 l -1.86133,0.49609 c -1.13497,-2.38467 -3.18361,-4.25432 -5.69727,-5.14649 -0.51935,-0.18545 -1.09081,0.0846 -1.27734,0.60352 -0.18526,0.51991 0.0857,1.09161 0.60547,1.27734 2.23217,0.79225 4.01386,2.54545 4.85937,4.82422 0.31686,0.89464 0.47851,1.7961 0.47852,2.73633 1e-5,4.42633 -3.55729,7.99252 -8.01757,8.01367 -4.46028,-0.0212 -8.01757,-3.5873 -8.01757,-8.01367 1e-5,-2.14197 0.83022,-4.07755 2.19336,-5.51562 0.37776,-0.40019 0.36116,-1.03039 -0.0371,-1.41016 -0.40072,-0.37723 -1.03093,-0.35981 -1.41015,0.0391 -1.70087,1.79433 -2.74609,4.22325 -2.7461,6.88672 0,0.97304 0.14,1.91427 0.40039,2.80469 h -2.59375 c 0.16748,-0.46956 0.25977,-0.97342 0.25977,-1.49805 -1e-5,-2.47343 -2.03048,-4.49609 -4.54006,-4.49609 l -6.45998,0.49393 c -0.88062,0 -1.69597,0.29064 -2.35938,0.7793 l -2.81445,-10.50196 c -0.27984,-1.04432 -1.2372,-1.77929 -2.31836,-1.7793 h -0.9707 l 4.19531,-9.44335 2.11914,0.57031 -0.25781,0.96094 c -0.14267,0.53398 0.17486,1.08244 0.70898,1.2246 l 4.82813,1.29883 c 1.58934,0.42588 3.30529,-0.51729 3.68359,-2.16211 0.35898,-1.56075 -0.54328,-3.21294 -2.13281,-3.63867 l -4.82813,-1.29297 c -0.53399,-0.14267 -1.08246,0.17487 -1.22461,0.70899 l -0.25976,0.96875 -1.81445,-0.48633 0.13085,-0.29688 c 0.22657,-0.50374 0.002,-1.09577 -0.50195,-1.32226 -0.13691,-0.0609 -0.28576,-0.0903 -0.43555,-0.0859 -0.38504,0.0116 -0.72919,0.2433 -0.88476,0.5957 l -4.26172,9.58399 -2.06445,0.38672 c 0.58871,-2.02243 0.63342,-4.2174 0.0137,-6.31836 l 2.27734,0.43164 c 0.54187,0.10115 1.06341,-0.25528 1.16602,-0.79688 0.10114,-0.54187 -0.25528,-1.0634 -0.79688,-1.16601 l -5.27148,-0.9961 c -1.23369,-0.1887 -2.10444,0.776 -2.35547,1.71285 -0.80304,2.54228 -0.74329,5.49477 0.008,7.93555 0.35864,1.16583 1.43026,1.88914 2.57617,1.67578 l 3.46094,-0.64648 c -1.83336,4.11443 -3.69405,8.2174 -5.54788,12.33302 -1.43428,-10e-4 -2.56737,1.12431 -2.56738,2.49314 -2e-5,1.36891 1.13307,2.50391 2.50195,2.50391 1.36888,0 2.49416,-1.135 2.49414,-2.50391 -1e-5,-0.60079 -0.21697,-1.15333 -0.57617,-1.58594 l 4.72851,-10.64062 h 1.85938 c 0.18561,0 0.33672,0.11577 0.38477,0.29492 l 3.25195,12.14258 c -0.0945,0.33913 -0.14453,0.69665 -0.14453,1.06445 0,2.19731 1.80271,4 4,4 z m -6.19354,-30.29514 3.86133,1.03321 c 0.54427,0.14589 0.83734,0.66969 0.70117,1.26171 -0.11686,0.50809 -0.67234,0.81777 -1.2168,0.67188 l -3.86132,-1.0332 z m -14.03125,1.11133 c 1.00683,2.34207 0.92868,4.92619 0.004,7.16992 -0.13351,0.3107 -0.60886,0.2504 -0.78516,-0.21098 -0.62133,-2.0201 -0.66977,-4.66756 -0.0156,-6.73829 0.12472,-0.46827 0.60863,-0.60453 0.79676,-0.22065 z m 35.94922,9.32617 c 0.47313,0.3939 0.77539,0.97688 0.77539,1.80078 0,1.0204 -0.41482,1.64649 -1.18164,1.64649 h -12.81445 c -0.32612,0 -0.61067,-0.15104 -0.79492,-0.38281 0.21578,-0.74941 0.15965,-1.5492 -0.18555,-2.16407 0.49583,-0.30551 1.28604,-0.58456 2.16797,-0.74414 1.12692,-0.20409 2.38077,-0.25787 3.30859,-0.25976 2.50835,-0.004 4.54949,-0.10633 6.73828,-0.39063 0.73576,-0.13357 1.51558,0.13692 1.98633,0.49414 z m -22.72461,6.85547 c -0.55229,0.002 -0.99825,0.45162 -0.99609,1.00391 0.002,0.54923 0.44686,0.99395 0.99609,0.99609 h 2 c 0.55229,0.002 1.00175,-0.4438 1.00391,-0.99609 0.002,-0.55534 -0.44857,-1.00609 -1.00391,-1.00391 z m 5.5,0 c -0.55229,0.002 -0.99825,0.45162 -0.99609,1.00391 0.002,0.54923 0.44686,0.99395 0.99609,0.99609 h 7.00586 c 0.54923,-0.002 0.99395,-0.44686 0.99609,-0.99609 0.002,-0.55229 -0.4438,-1.00175 -0.99609,-1.00391 z m -27.22851,7.2285 c 1e-5,3.42826 2.80025,6.23047 6.22851,6.23047 3.42826,0 6.23045,-2.80221 6.23047,-6.23047 0,-0.96526 -0.2244,-1.88298 -0.61914,-2.70117 -0.24036,-0.49291 -0.83285,-0.70028 -1.32813,-0.46485 -0.49587,0.2375 -0.707,0.83076 -0.47265,1.32813 0.26751,0.55449 0.41992,1.177 0.41992,1.83789 -1e-5,2.34739 -1.88308,4.23047 -4.23047,4.23047 -2.34738,0 -4.22851,-1.88308 -4.22851,-4.23047 0,-2.09598 1.51376,-3.81515 3.49804,-4.16211 0.54523,-0.0952 0.9094,-0.61523 0.8125,-1.16016 -0.0843,-0.47769 -0.4993,-0.82597 -1.07128,-0.81836 -3.01384,0.51956 -5.23925,3.07955 -5.23926,6.14063 z m 46.96289,-5.05662 c -0.28305,0.47656 -0.12449,1.09242 0.35351,1.37304 1.25079,0.7344 2.08984,2.08305 2.08985,3.64649 -1e-5,2.34739 -1.87528,4.23047 -4.22266,4.23047 -2.34738,0 -4.23046,-1.88308 -4.23047,-4.23047 0,-0.60167 0.12361,-1.1663 0.34766,-1.68164 0.21941,-0.50592 -0.0121,-1.09396 -0.51758,-1.31446 -0.50749,-0.22333 -1.0998,0.009 -1.32031,0.51758 -0.33079,0.76093 -0.50976,1.59982 -0.50977,2.47852 2e-5,3.42826 2.80221,6.23047 6.23047,6.23047 3.42826,0 6.22264,-2.80221 6.22266,-6.23047 -1e-5,-2.28333 -1.23527,-4.29105 -3.07813,-5.37305 -0.58578,-0.27259 -1.11908,-0.056 -1.36523,0.35352 z m -24.73045,8.32812 c -1.11642,0 -2,-0.88356 -2,-2 0.0314,-1.35034 1.0314,-1.88699 2.00005,-2.00195 l 6.50383,-0.49414 c 1.38677,0.008 2.4961,1.10764 2.4961,2.49609 0,1.69237 -1.11899,2.49414 -2.4961,2.49414 z"
         transform="matrix(0.26458334,0,0,0.26458334,0,280.06666)"
         sodipodi:nodetypes="cccccscccssscccscccccsccccsccsccscccsccscccscsccssscccccccccscscccsccsccccsccccccscccccccccccccccccccccsssccsccscccsccccccccccscccccscccccccccscccccscccssscccsccccccccsscscsccccccccc" />
    </g>
  </g>
</svg>
