<?xml version="1.0" ?><svg xmlns="http://www.w3.org/2000/svg" xmlns:xlink="http://www.w3.org/1999/xlink" version="1.1" viewBox="0 0 512 512" style="enable-background:new 0 0 512 512;" xml:space="preserve"><g id="_x34_0_x2C__Movie_x2C__Video_x2C__Film_Reel_x2C__Love_and_Romance_x2C__Romantic"><g><path d="M126,391H56c-5.522,0-10,4.478-10,10v60c0,5.522,4.478,10,10,10h70c5.522,0,10-4.478,10-10v-60    C136,395.478,131.522,391,126,391z M116,451H66v-40h50V451z"/><path d="M236,391h-70c-5.522,0-10,4.478-10,10v60c0,5.522,4.478,10,10,10h70c5.522,0,10-4.478,10-10v-60    C246,395.478,241.522,391,236,391z M226,451h-50v-40h50V451z"/><path d="M346,391h-70c-5.522,0-10,4.478-10,10v60c0,5.522,4.478,10,10,10h70c5.522,0,10-4.478,10-10v-60    C356,395.478,351.522,391,346,391z M336,451h-50v-40h50V451z"/><path d="M456,391h-70c-5.522,0-10,4.478-10,10v60c0,5.522,4.478,10,10,10h70c5.522,0,10-4.478,10-10v-60    C466,395.478,461.522,391,456,391z M446,451h-50v-40h50V451z"/><g><path d="M307.542,255.002c12.286-12.298,12.288-32.178-0.003-44.479c-12.287-12.287-32.178-12.288-44.467,0.003     c-3.903,3.903-10.234,3.905-14.14,0.002c-12.316-12.306-32.201-12.274-44.473-0.003c-12.252,12.258-12.257,32.2-0.013,44.465     c6.453,6.453,45.099,45.099,51.554,51.554L307.542,255.002z"/><path d="M471,1H41C18.944,1,1,18.944,1,41v430c0,22.056,17.944,40,40,40h430c22.056,0,40-17.944,40-40V41     C511,18.944,493.056,1,471,1z M21,161h60v190H21V161z M491,471c0,11.028-8.972,20-20,20H41c-11.028,0-20-8.972-20-20V371h470V471     z M190.316,196.385c18.049-18.053,45.851-19.723,65.683-5.922c19.821-13.796,47.622-12.143,65.686,5.92     c20.095,20.113,20.108,52.634,0.003,72.758l-58.615,58.615c-3.907,3.906-10.236,3.904-14.143,0l-58.612-58.611     C170.266,249.083,170.266,216.443,190.316,196.385z M491,351h-60V161h60V351z M491,141H21V41c0-11.028,8.972-20,20-20h430     c11.028,0,20,8.972,20,20V141z"/><path d="M126,41H56c-5.522,0-10,4.478-10,10v60c0,5.522,4.478,10,10,10h70c5.522,0,10-4.478,10-10V51     C136,45.478,131.522,41,126,41z M116,101H66V61h50V101z"/><path d="M236,41h-70c-5.522,0-10,4.478-10,10v60c0,5.522,4.478,10,10,10h70c5.522,0,10-4.478,10-10V51     C246,45.478,241.522,41,236,41z M226,101h-50V61h50V101z"/><path d="M346,41h-70c-5.522,0-10,4.478-10,10v60c0,5.522,4.478,10,10,10h70c5.522,0,10-4.478,10-10V51     C356,45.478,351.522,41,346,41z M336,101h-50V61h50V101z"/><path d="M456,41h-70c-5.522,0-10,4.478-10,10v60c0,5.522,4.478,10,10,10h70c5.522,0,10-4.478,10-10V51     C466,45.478,461.522,41,456,41z M446,101h-50V61h50V101z"/></g></g></g><g id="Layer_1"/></svg>